<?xml version="1.0" encoding="UTF-8" standalone="no"?>
<svg xmlns="http://www.w3.org/2000/svg" version="1.1" viewBox="0.00 0.00 360.00 640.00">
<g stroke-width="2.00" fill="none" stroke-linecap="butt">
<path stroke="#d4d6dd" vector-effect="non-scaling-stroke" d="
  M 360.00 177.82
  Q 343.65 172.80 332.59 185.49
  Q 332.12 186.03 331.41 185.99
  Q 327.66 185.78 324.03 187.44
  Q 323.38 187.74 322.86 187.25
  Q 315.84 180.54 307.80 185.63
  C 306.45 186.49 305.49 188.00 304.58 189.29
  Q 304.25 189.76 303.69 189.92
  C 301.39 190.58 299.08 191.27 297.09 192.61
  C 288.79 198.21 285.24 208.76 289.91 218.18
  Q 290.23 218.83 289.50 218.79
  Q 275.54 217.98 272.63 231.74
  Q 272.50 232.36 271.88 232.45
  C 262.40 233.81 257.15 243.05 261.12 251.60
  Q 261.35 252.09 260.86 252.31
  Q 257.29 253.94 254.97 257.66
  Q 254.68 258.13 254.13 258.19
  L 252.42 258.37
  A 1.23 1.22 -7.2 0 0 251.33 259.77
  L 251.42 260.37
  Q 251.58 261.41 252.62 261.28
  L 255.94 260.86
  A 1.30 1.28 8.9 0 0 256.94 260.14
  Q 259.19 255.54 264.33 253.94
  A 1.13 1.12 -27.2 0 0 264.90 252.20
  C 259.23 244.65 265.18 234.64 274.44 235.33
  Q 275.60 235.42 275.54 234.25
  C 275.05 224.46 286.14 217.70 294.24 224.00
  A 1.36 1.35 -41.4 0 0 295.77 224.09
  Q 296.36 223.73 296.52 222.96
  A 1.22 1.21 29.0 0 0 296.20 221.85
  Q 289.27 214.66 291.25 205.96
  Q 293.75 195.05 305.70 192.57
  A 1.71 1.69 -74.2 0 0 306.60 192.06
  C 307.30 191.32 307.50 190.21 308.23 189.42
  Q 312.44 184.84 318.19 187.30
  C 319.88 188.02 320.85 189.56 321.87 190.99
  A 1.24 1.23 -36.0 0 0 323.62 191.26
  Q 327.97 188.02 332.68 189.17
  A 1.12 1.11 25.3 0 0 333.83 188.76
  Q 343.92 175.41 360.00 180.65"
/>
<path stroke="#d4d6dd" vector-effect="non-scaling-stroke" d="
  M 360.00 283.46
  Q 330.70 326.85 302.44 369.66
  Q 301.32 371.35 302.70 372.06
  A 1.50 1.49 30.4 0 0 304.64 371.56
  L 360.00 288.54"
/>
<path stroke="#d4d6dd" vector-effect="non-scaling-stroke" d="
  M 360.00 433.87
  L 324.57 457.39
  Q 323.35 458.21 323.85 459.59
  Q 324.07 460.20 324.97 460.35
  A 1.28 1.25 32.6 0 0 325.87 460.16
  L 360.00 437.34"
/>
<path stroke="#d4d6dd" vector-effect="non-scaling-stroke" d="
  M 360.00 461.06
  Q 345.98 460.44 345.82 474.78
  A 0.46 0.46 0.0 0 1 345.32 475.23
  Q 339.05 474.70 333.37 478.57
  A 1.43 1.38 82.6 0 0 332.82 479.31
  Q 332.21 481.23 334.04 481.41
  A 1.30 1.29 -60.0 0 0 334.93 481.17
  Q 340.80 476.81 348.07 478.48
  A 1.42 1.42 0.0 0 0 349.69 476.52
  C 346.47 469.19 352.19 462.82 360.00 464.42"
/>
<path stroke="#d4d6dd" vector-effect="non-scaling-stroke" d="
  M 360.00 508.31
  L 349.16 510.98
  A 1.48 1.48 0.0 0 0 348.07 512.78
  L 348.14 513.05
  Q 348.39 514.09 349.43 513.82
  L 360.00 511.13"
/>
<path stroke="#d4d6dd" vector-effect="non-scaling-stroke" d="
  M 360.00 553.36
  L 343.88 553.27
  A 0.64 0.64 0.0 0 1 343.24 552.64
  C 342.57 501.91 319.29 455.31 279.39 424.28
  C 242.14 395.31 193.17 383.90 146.50 393.23
  C 112.47 400.03 81.08 417.29 57.64 443.01
  Q 15.79 488.91 14.09 552.65
  Q 14.07 553.16 13.56 553.17
  L 0.00 553.30"
/>
<path stroke="#d4d6dd" vector-effect="non-scaling-stroke" d="
  M 0.00 511.88
  L 7.92 513.82
  A 1.16 1.16 0.0 0 0 9.20 513.28
  Q 9.36 512.99 9.40 512.67
  Q 9.54 511.38 8.28 511.08
  L 0.00 509.09"
/>
<path stroke="#d4d6dd" vector-effect="non-scaling-stroke" d="
  M 0.00 438.89
  L 10.45 445.92
  A 1.00 1.00 0.0 0 0 11.78 445.73
  L 12.01 445.45
  Q 13.04 444.20 11.68 443.32
  L 0.00 435.75"
/>
<path stroke="#d4d6dd" vector-effect="non-scaling-stroke" d="
  M 0.00 292.24
  Q 15.82 316.12 31.79 340.06
  C 32.39 340.97 33.26 341.27 34.31 340.82
  A 1.04 1.03 61.1 0 0 34.75 339.29
  L 0.00 287.48"
/>
<path stroke="#d4d6dd" vector-effect="non-scaling-stroke" d="
  M 0.00 189.77
  Q 0.38 191.23 1.31 189.12
  Q 1.57 188.54 1.98 188.09
  Q 6.47 183.14 12.44 182.59
  Q 25.29 181.41 30.45 194.19
  A 1.12 1.11 -23.5 0 0 31.95 194.78
  C 40.12 190.94 49.18 193.04 54.65 200.09
  Q 59.73 206.63 57.83 215.84
  A 1.30 1.30 0.0 0 0 58.62 217.32
  C 62.70 218.96 65.75 222.33 67.46 226.38
  Q 69.44 231.01 74.39 235.10
  A 1.14 1.14 0.0 0 0 76.24 234.42
  Q 76.41 233.45 75.46 232.38
  C 73.31 229.93 71.08 227.70 69.85 224.57
  C 68.25 220.48 65.31 217.72 61.61 215.25
  Q 61.06 214.88 61.13 214.22
  Q 62.27 203.52 55.15 196.16
  C 49.55 190.38 40.84 188.46 33.21 190.97
  Q 32.50 191.21 32.15 190.54
  Q 27.54 181.78 18.77 179.93
  Q 7.69 177.60 0.00 185.93"
/>
<path stroke="#d4d6dd" vector-effect="non-scaling-stroke" d="
  M 180.01 177.51
  A 1.30 1.30 0.0 0 0 178.71 176.21
  L 178.67 176.21
  A 1.30 1.30 0.0 0 0 177.37 177.51
  L 177.37 229.59
  A 1.30 1.30 0.0 0 0 178.67 230.89
  L 178.71 230.89
  A 1.30 1.30 0.0 0 0 180.01 229.59
  L 180.01 177.51"
/>
<path stroke="#d4d6dd" vector-effect="non-scaling-stroke" d="
  M 84.8675 245.4395
  A 2.98 1.28 50.2 0 0 83.9434 242.3307
  A 2.98 1.28 50.2 0 0 81.0525 240.8605
  A 2.98 1.28 50.2 0 0 81.9766 243.9693
  A 2.98 1.28 50.2 0 0 84.8675 245.4395"
/>
<path stroke="#d4d6dd" vector-effect="non-scaling-stroke" d="
  M 180.03 252.35
  A 1.33 1.33 0.0 0 0 178.70 251.02
  L 178.66 251.02
  A 1.33 1.33 0.0 0 0 177.33 252.35
  L 177.33 377.55
  A 1.33 1.33 0.0 0 0 178.66 378.88
  L 178.70 378.88
  A 1.33 1.33 0.0 0 0 180.03 377.55
  L 180.03 252.35"
/>
<path stroke="#d4d6dd" vector-effect="non-scaling-stroke" d="
  M 249.3011 259.9370
  A 1.19 1.19 0.0 0 0 247.9208 258.9741
  L 246.0306 259.3108
  A 1.19 1.19 0.0 0 0 245.0677 260.6911
  L 245.1589 261.2030
  A 1.19 1.19 0.0 0 0 246.5392 262.1659
  L 248.4294 261.8292
  A 1.19 1.19 0.0 0 0 249.3923 260.4489
  L 249.3011 259.9370"
/>
<path stroke="#d4d6dd" vector-effect="non-scaling-stroke" d="
  M 114.1774 294.9509
  A 1.40 1.40 0.0 0 0 112.4768 293.9371
  L 112.3798 293.9616
  A 1.40 1.40 0.0 0 0 111.3660 295.6622
  L 114.6826 308.7691
  A 1.40 1.40 0.0 0 0 116.3832 309.7829
  L 116.4802 309.7584
  A 1.40 1.40 0.0 0 0 117.4940 308.0578
  L 114.1774 294.9509"
/>
<path stroke="#d4d6dd" vector-effect="non-scaling-stroke" d="
  M 241.7209 312.8954
  A 1.36 1.36 0.0 0 0 240.7303 311.2468
  L 240.6527 311.2275
  A 1.36 1.36 0.0 0 0 239.0040 312.2181
  L 234.6591 329.6446
  A 1.36 1.36 0.0 0 0 235.6497 331.2932
  L 235.7273 331.3125
  A 1.36 1.36 0.0 0 0 237.3760 330.3219
  L 241.7209 312.8954"
/>
<path stroke="#d4d6dd" vector-effect="non-scaling-stroke" d="
  M 120.1250 318.5844
  A 1.44 1.44 0.0 0 0 118.3794 317.5355
  L 118.3406 317.5452
  A 1.44 1.44 0.0 0 0 117.2917 319.2908
  L 133.2150 383.1556
  A 1.44 1.44 0.0 0 0 134.9606 384.2045
  L 134.9994 384.1948
  A 1.44 1.44 0.0 0 0 136.0483 382.4492
  L 120.1250 318.5844"
/>
<path stroke="#d4d6dd" vector-effect="non-scaling-stroke" d="
  M 232.9884 347.9863
  A 1.39 1.39 0.0 0 0 231.9760 346.3013
  L 231.8790 346.2771
  A 1.39 1.39 0.0 0 0 230.1940 347.2896
  L 221.4316 382.4337
  A 1.39 1.39 0.0 0 0 222.4440 384.1187
  L 222.5410 384.1429
  A 1.39 1.39 0.0 0 0 224.2260 383.1304
  L 232.9884 347.9863"
/>
<path stroke="#d4d6dd" vector-effect="non-scaling-stroke" d="
  M 42.0287 350.0145
  A 1.48 1.48 0.0 0 0 39.9762 349.6044
  L 39.9430 349.6266
  A 1.48 1.48 0.0 0 0 39.5328 351.6790
  L 77.1513 408.0855
  A 1.48 1.48 0.0 0 0 79.2038 408.4956
  L 79.2370 408.4734
  A 1.48 1.48 0.0 0 0 79.6472 406.4210
  L 42.0287 350.0145"
/>
<path stroke="#d4d6dd" vector-effect="non-scaling-stroke" d="
  M 296.5849 383.6633
  A 1.49 1.49 0.0 0 0 296.1684 381.5977
  L 296.1351 381.5756
  A 1.49 1.49 0.0 0 0 294.0695 381.9921
  L 277.8551 406.3967
  A 1.49 1.49 0.0 0 0 278.2716 408.4623
  L 278.3049 408.4844
  A 1.49 1.49 0.0 0 0 280.3705 408.0679
  L 296.5849 383.6633"
/>
<path stroke="#d4d6dd" vector-effect="non-scaling-stroke" d="
  M 33.5425 459.6139
  A 1.51 1.51 0.0 0 0 33.1241 457.5199
  L 22.6248 450.5177
  A 1.51 1.51 0.0 0 0 20.5308 450.9362
  L 20.4975 450.9861
  A 1.51 1.51 0.0 0 0 20.9159 453.0801
  L 31.4152 460.0823
  A 1.51 1.51 0.0 0 0 33.5092 459.6638
  L 33.5425 459.6139"
/>
<path stroke="#d4d6dd" vector-effect="non-scaling-stroke" d="
  M 360.00 556.02
  L 0.00 556.05"
/>
<path stroke="#d4d6dd" vector-effect="non-scaling-stroke" d="
  M 307.84 457.37
  C 285.75 428.12 252.62 405.79 216.22 397.35
  Q 162.78 384.95 113.37 406.84
  Q 73.21 424.64 47.48 460.43
  Q 18.03 501.37 16.95 552.48
  Q 16.93 553.28 17.73 553.28
  L 37.05 553.31
  A 0.64 0.63 -89.5 0 0 37.68 552.68
  Q 38.57 510.44 61.53 475.92
  C 74.84 455.90 93.85 439.34 114.99 428.72
  C 159.66 406.29 213.03 408.93 255.44 436.19
  C 295.12 461.69 318.84 505.25 319.77 552.81
  Q 319.78 553.36 320.32 553.36
  L 339.78 553.37
  A 0.52 0.52 0.0 0 0 340.30 552.86
  Q 340.43 542.20 338.91 531.91
  Q 332.77 490.40 307.84 457.37"
/>
<path stroke="#d4d6dd" vector-effect="non-scaling-stroke" d="
  M 61.08 552.93
  C 61.78 511.20 83.82 473.35 119.88 452.66
  C 171.72 422.92 237.96 436.52 273.50 484.79
  Q 291.14 508.73 295.31 538.48
  C 295.98 543.21 296.12 547.89 296.41 552.73
  Q 296.45 553.31 297.04 553.31
  L 316.25 553.31
  Q 316.79 553.31 316.81 552.77
  Q 316.90 550.27 316.77 547.83
  C 315.06 515.98 302.74 485.48 281.01 461.95
  Q 260.48 439.71 234.50 428.24
  C 162.31 396.38 79.97 431.12 50.34 503.65
  Q 41.10 526.28 40.50 552.73
  A 0.55 0.55 0.0 0 0 41.05 553.29
  L 60.71 553.29
  A 0.37 0.37 0.0 0 0 61.08 552.93"
/>
<path stroke="#d4d6dd" vector-effect="non-scaling-stroke" d="
  M 152.37 465.89
  C 211.50 448.68 269.53 491.31 271.32 552.89
  A 0.41 0.41 0.0 0 0 271.73 553.29
  L 293.19 553.30
  A 0.38 0.38 0.0 0 0 293.57 552.91
  C 292.67 516.18 275.64 483.64 246.28 461.98
  C 207.86 433.65 155.26 432.43 115.58 458.84
  C 84.51 479.52 64.09 515.09 63.98 552.97
  A 0.31 0.31 0.0 0 0 64.29 553.28
  L 85.53 553.34
  A 0.62 0.62 0.0 0 0 86.15 552.74
  C 87.37 512.28 113.43 477.23 152.37 465.89"
/>
<path stroke="#d4d6dd" vector-effect="non-scaling-stroke" d="
  M 198.92 488.06
  C 227.68 496.87 247.45 522.45 248.22 552.74
  Q 248.24 553.28 248.78 553.29
  L 267.70 553.31
  Q 268.29 553.31 268.30 552.72
  Q 268.37 548.74 267.92 544.94
  C 263.69 509.46 239.95 480.34 206.23 469.34
  C 149.21 450.75 90.76 492.94 89.00 552.57
  Q 88.98 553.29 89.70 553.29
  L 108.49 553.30
  Q 109.10 553.30 109.13 552.69
  Q 110.09 529.14 124.25 511.21
  C 141.86 488.92 172.00 479.81 198.92 488.06"
/>
<path stroke="#d4d6dd" vector-effect="non-scaling-stroke" d="
  M 209.89 520.10
  Q 223.75 532.71 225.14 552.66
  A 0.64 0.64 0.0 0 0 225.78 553.26
  L 244.76 553.31
  Q 245.30 553.31 245.28 552.77
  Q 244.12 527.05 227.00 509.03
  C 210.14 491.29 185.79 484.25 162.08 490.26
  C 133.63 497.47 113.15 523.32 112.20 552.65
  Q 112.17 553.27 112.79 553.27
  L 131.72 553.32
  A 0.59 0.59 0.0 0 0 132.32 552.76
  Q 133.67 531.18 149.92 518.19
  C 167.35 504.27 193.30 505.01 209.89 520.10"
/>
<path stroke="#d4d6dd" vector-effect="non-scaling-stroke" d="
  M 181.13 530.85
  C 193.09 532.09 201.11 540.88 202.70 552.78
  Q 202.77 553.28 203.28 553.28
  L 221.52 553.28
  A 0.67 0.67 0.0 0 0 222.20 552.56
  C 220.65 527.35 198.34 508.09 173.11 511.55
  C 152.04 514.43 136.30 531.69 135.25 552.96
  A 0.29 0.29 0.0 0 0 135.54 553.26
  L 154.02 553.31
  A 0.80 0.79 3.7 0 0 154.81 552.62
  Q 157.10 536.61 171.67 531.75
  Q 175.99 530.31 181.13 530.85"
/>
<path stroke="#d4d6dd" vector-effect="non-scaling-stroke" d="
  M 176.10 533.89
  C 166.54 535.24 158.76 542.72 157.75 552.68
  A 0.56 0.55 -87.2 0 0 158.30 553.29
  L 199.21 553.28
  A 0.47 0.47 0.0 0 0 199.68 552.76
  C 198.66 541.13 187.79 532.23 176.10 533.89"
/>
<path stroke="#d4d6dd" vector-effect="non-scaling-stroke" d="
  M 343.21 565.80
  A 1.20 1.20 0.0 0 0 342.01 564.60
  L 15.31 564.60
  A 1.20 1.20 0.0 0 0 14.11 565.80
  L 14.11 565.90
  A 1.20 1.20 0.0 0 0 15.31 567.10
  L 342.01 567.10
  A 1.20 1.20 0.0 0 0 343.21 565.90
  L 343.21 565.80"
/>
<path stroke="#d4d6dd" vector-effect="non-scaling-stroke" d="
  M 180.62 580.76
  A 1.22 1.22 0.0 0 0 179.40 579.54
  L 33.02 579.54
  A 1.22 1.22 0.0 0 0 31.80 580.76
  L 31.80 580.80
  A 1.22 1.22 0.0 0 0 33.02 582.02
  L 179.40 582.02
  A 1.22 1.22 0.0 0 0 180.62 580.80
  L 180.62 580.76"
/>
<path stroke="#d4d6dd" vector-effect="non-scaling-stroke" d="
  M 237.47 580.74
  A 1.24 1.24 0.0 0 0 236.23 579.50
  L 197.23 579.50
  A 1.24 1.24 0.0 0 0 195.99 580.74
  L 195.99 580.82
  A 1.24 1.24 0.0 0 0 197.23 582.06
  L 236.23 582.06
  A 1.24 1.24 0.0 0 0 237.47 580.82
  L 237.47 580.74"
/>
<path stroke="#d4d6dd" vector-effect="non-scaling-stroke" d="
  M 323.30 580.73
  A 1.20 1.20 0.0 0 0 322.10 579.53
  L 250.10 579.53
  A 1.20 1.20 0.0 0 0 248.90 580.73
  L 248.90 580.83
  A 1.20 1.20 0.0 0 0 250.10 582.03
  L 322.10 582.03
  A 1.20 1.20 0.0 0 0 323.30 580.83
  L 323.30 580.73"
/>
<path stroke="#d4d6dd" vector-effect="non-scaling-stroke" d="
  M 112.84 595.65
  A 1.29 1.29 0.0 0 0 111.55 594.36
  L 50.65 594.36
  A 1.29 1.29 0.0 0 0 49.36 595.65
  L 49.36 595.71
  A 1.29 1.29 0.0 0 0 50.65 597.00
  L 111.55 597.00
  A 1.29 1.29 0.0 0 0 112.84 595.71
  L 112.84 595.65"
/>
<path stroke="#d4d6dd" vector-effect="non-scaling-stroke" d="
  M 288.27 595.65
  A 1.37 1.37 0.0 0 0 286.90 594.28
  L 125.86 594.28
  A 1.37 1.37 0.0 0 0 124.49 595.65
  L 124.49 595.69
  A 1.37 1.37 0.0 0 0 125.86 597.06
  L 286.90 597.06
  A 1.37 1.37 0.0 0 0 288.27 595.69
  L 288.27 595.65"
/>
<path stroke="#d4d6dd" vector-effect="non-scaling-stroke" d="
  M 307.9999 595.6220
  A 1.14 1.14 0.0 0 0 306.8579 594.4839
  L 299.9179 594.4961
  A 1.14 1.14 0.0 0 0 298.7799 595.6380
  L 298.7801 595.7380
  A 1.14 1.14 0.0 0 0 299.9221 596.8761
  L 306.8621 596.8639
  A 1.14 1.14 0.0 0 0 308.0001 595.7220
  L 307.9999 595.6220"
/>
<path stroke="#d4d6dd" vector-effect="non-scaling-stroke" d="
  M 164.01 610.37
  A 1.46 1.46 0.0 0 0 162.55 608.91
  L 80.97 608.91
  A 1.46 1.46 0.0 0 0 79.51 610.37
  L 79.51 610.41
  A 1.46 1.46 0.0 0 0 80.97 611.87
  L 162.55 611.87
  A 1.46 1.46 0.0 0 0 164.01 610.41
  L 164.01 610.37"
/>
<path stroke="#d4d6dd" vector-effect="non-scaling-stroke" d="
  M 230.13 610.38
  A 1.43 1.43 0.0 0 0 228.70 608.95
  L 177.58 608.95
  A 1.43 1.43 0.0 0 0 176.15 610.38
  L 176.15 610.42
  A 1.43 1.43 0.0 0 0 177.58 611.85
  L 228.70 611.85
  A 1.43 1.43 0.0 0 0 230.13 610.42
  L 230.13 610.38"
/>
<path stroke="#d4d6dd" vector-effect="non-scaling-stroke" d="
  M 258.7301 610.3426
  A 1.38 1.38 0.0 0 0 257.3525 608.9602
  L 245.6725 608.9398
  A 1.38 1.38 0.0 0 0 244.2901 610.3174
  L 244.2899 610.4574
  A 1.38 1.38 0.0 0 0 245.6675 611.8398
  L 257.3475 611.8602
  A 1.38 1.38 0.0 0 0 258.7299 610.4826
  L 258.7301 610.3426"
/>
<path stroke="#d4d6dd" vector-effect="non-scaling-stroke" d="
  M 154.51 625.18
  A 1.35 1.35 0.0 0 0 153.16 623.83
  L 117.22 623.83
  A 1.35 1.35 0.0 0 0 115.87 625.18
  L 115.87 625.40
  A 1.35 1.35 0.0 0 0 117.22 626.75
  L 153.16 626.75
  A 1.35 1.35 0.0 0 0 154.51 625.40
  L 154.51 625.18"
/>
<path stroke="#d4d6dd" vector-effect="non-scaling-stroke" d="
  M 175.7407 625.0908
  A 1.24 1.24 0.0 0 0 174.5051 623.8465
  L 165.0651 623.8135
  A 1.24 1.24 0.0 0 0 163.8208 625.0492
  L 163.8193 625.4892
  A 1.24 1.24 0.0 0 0 165.0549 626.7335
  L 174.4949 626.7665
  A 1.24 1.24 0.0 0 0 175.7392 625.5308
  L 175.7407 625.0908"
/>
<path stroke="#d4d6dd" vector-effect="non-scaling-stroke" d="
  M 247.18 625.10
  A 1.26 1.26 0.0 0 0 245.92 623.84
  L 188.62 623.84
  A 1.26 1.26 0.0 0 0 187.36 625.10
  L 187.36 625.48
  A 1.26 1.26 0.0 0 0 188.62 626.74
  L 245.92 626.74
  A 1.26 1.26 0.0 0 0 247.18 625.48
  L 247.18 625.10"
/>
<path stroke="#d4d6dd" vector-effect="non-scaling-stroke" d="
  M 160.8693 637.3938
  A 1.29 1.29 0.0 0 0 159.5748 636.1084
  L 152.8949 636.1317
  A 1.29 1.29 0.0 0 0 151.6094 637.4262
  L 151.6107 637.8062
  A 1.29 1.29 0.0 0 0 152.9052 639.0916
  L 159.5851 639.0683
  A 1.29 1.29 0.0 0 0 160.8706 637.7738
  L 160.8693 637.3938"
/>
<path stroke="#d4d6dd" vector-effect="non-scaling-stroke" d="
  M 191.59 637.45
  A 1.33 1.33 0.0 0 0 190.26 636.12
  L 169.72 636.12
  A 1.33 1.33 0.0 0 0 168.39 637.45
  L 168.39 637.77
  A 1.33 1.33 0.0 0 0 169.72 639.10
  L 190.26 639.10
  A 1.33 1.33 0.0 0 0 191.59 637.77
  L 191.59 637.45"
/>
</g>
<path fill="#ffffff" d="
  M 0.00 0.00
  L 360.00 0.00
  L 360.00 177.82
  Q 343.65 172.80 332.59 185.49
  Q 332.12 186.03 331.41 185.99
  Q 327.66 185.78 324.03 187.44
  Q 323.38 187.74 322.86 187.25
  Q 315.84 180.54 307.80 185.63
  C 306.45 186.49 305.49 188.00 304.58 189.29
  Q 304.25 189.76 303.69 189.92
  C 301.39 190.58 299.08 191.27 297.09 192.61
  C 288.79 198.21 285.24 208.76 289.91 218.18
  Q 290.23 218.83 289.50 218.79
  Q 275.54 217.98 272.63 231.74
  Q 272.50 232.36 271.88 232.45
  C 262.40 233.81 257.15 243.05 261.12 251.60
  Q 261.35 252.09 260.86 252.31
  Q 257.29 253.94 254.97 257.66
  Q 254.68 258.13 254.13 258.19
  L 252.42 258.37
  A 1.23 1.22 -7.2 0 0 251.33 259.77
  L 251.42 260.37
  Q 251.58 261.41 252.62 261.28
  L 255.94 260.86
  A 1.30 1.28 8.9 0 0 256.94 260.14
  Q 259.19 255.54 264.33 253.94
  A 1.13 1.12 -27.2 0 0 264.90 252.20
  C 259.23 244.65 265.18 234.64 274.44 235.33
  Q 275.60 235.42 275.54 234.25
  C 275.05 224.46 286.14 217.70 294.24 224.00
  A 1.36 1.35 -41.4 0 0 295.77 224.09
  Q 296.36 223.73 296.52 222.96
  A 1.22 1.21 29.0 0 0 296.20 221.85
  Q 289.27 214.66 291.25 205.96
  Q 293.75 195.05 305.70 192.57
  A 1.71 1.69 -74.2 0 0 306.60 192.06
  C 307.30 191.32 307.50 190.21 308.23 189.42
  Q 312.44 184.84 318.19 187.30
  C 319.88 188.02 320.85 189.56 321.87 190.99
  A 1.24 1.23 -36.0 0 0 323.62 191.26
  Q 327.97 188.02 332.68 189.17
  A 1.12 1.11 25.3 0 0 333.83 188.76
  Q 343.92 175.41 360.00 180.65
  L 360.00 283.46
  Q 330.70 326.85 302.44 369.66
  Q 301.32 371.35 302.70 372.06
  A 1.50 1.49 30.4 0 0 304.64 371.56
  L 360.00 288.54
  L 360.00 433.87
  L 324.57 457.39
  Q 323.35 458.21 323.85 459.59
  Q 324.07 460.20 324.97 460.35
  A 1.28 1.25 32.6 0 0 325.87 460.16
  L 360.00 437.34
  L 360.00 461.06
  Q 345.98 460.44 345.82 474.78
  A 0.46 0.46 0.0 0 1 345.32 475.23
  Q 339.05 474.70 333.37 478.57
  A 1.43 1.38 82.6 0 0 332.82 479.31
  Q 332.21 481.23 334.04 481.41
  A 1.30 1.29 -60.0 0 0 334.93 481.17
  Q 340.80 476.81 348.07 478.48
  A 1.42 1.42 0.0 0 0 349.69 476.52
  C 346.47 469.19 352.19 462.82 360.00 464.42
  L 360.00 508.31
  L 349.16 510.98
  A 1.48 1.48 0.0 0 0 348.07 512.78
  L 348.14 513.05
  Q 348.39 514.09 349.43 513.82
  L 360.00 511.13
  L 360.00 553.36
  L 343.88 553.27
  A 0.64 0.64 0.0 0 1 343.24 552.64
  C 342.57 501.91 319.29 455.31 279.39 424.28
  C 242.14 395.31 193.17 383.90 146.50 393.23
  C 112.47 400.03 81.08 417.29 57.64 443.01
  Q 15.79 488.91 14.09 552.65
  Q 14.07 553.16 13.56 553.17
  L 0.00 553.30
  L 0.00 511.88
  L 7.92 513.82
  A 1.16 1.16 0.0 0 0 9.20 513.28
  Q 9.36 512.99 9.40 512.67
  Q 9.54 511.38 8.28 511.08
  L 0.00 509.09
  L 0.00 438.89
  L 10.45 445.92
  A 1.00 1.00 0.0 0 0 11.78 445.73
  L 12.01 445.45
  Q 13.04 444.20 11.68 443.32
  L 0.00 435.75
  L 0.00 292.24
  Q 15.82 316.12 31.79 340.06
  C 32.39 340.97 33.26 341.27 34.31 340.82
  A 1.04 1.03 61.1 0 0 34.75 339.29
  L 0.00 287.48
  L 0.00 189.77
  Q 0.38 191.23 1.31 189.12
  Q 1.57 188.54 1.98 188.09
  Q 6.47 183.14 12.44 182.59
  Q 25.29 181.41 30.45 194.19
  A 1.12 1.11 -23.5 0 0 31.95 194.78
  C 40.12 190.94 49.18 193.04 54.65 200.09
  Q 59.73 206.63 57.83 215.84
  A 1.30 1.30 0.0 0 0 58.62 217.32
  C 62.70 218.96 65.75 222.33 67.46 226.38
  Q 69.44 231.01 74.39 235.10
  A 1.14 1.14 0.0 0 0 76.24 234.42
  Q 76.41 233.45 75.46 232.38
  C 73.31 229.93 71.08 227.70 69.85 224.57
  C 68.25 220.48 65.31 217.72 61.61 215.25
  Q 61.06 214.88 61.13 214.22
  Q 62.27 203.52 55.15 196.16
  C 49.55 190.38 40.84 188.46 33.21 190.97
  Q 32.50 191.21 32.15 190.54
  Q 27.54 181.78 18.77 179.93
  Q 7.69 177.60 0.00 185.93
  L 0.00 0.00
  Z
  M 180.01 177.51
  A 1.30 1.30 0.0 0 0 178.71 176.21
  L 178.67 176.21
  A 1.30 1.30 0.0 0 0 177.37 177.51
  L 177.37 229.59
  A 1.30 1.30 0.0 0 0 178.67 230.89
  L 178.71 230.89
  A 1.30 1.30 0.0 0 0 180.01 229.59
  L 180.01 177.51
  Z
  M 84.8675 245.4395
  A 2.98 1.28 50.2 0 0 83.9434 242.3307
  A 2.98 1.28 50.2 0 0 81.0525 240.8605
  A 2.98 1.28 50.2 0 0 81.9766 243.9693
  A 2.98 1.28 50.2 0 0 84.8675 245.4395
  Z
  M 180.03 252.35
  A 1.33 1.33 0.0 0 0 178.70 251.02
  L 178.66 251.02
  A 1.33 1.33 0.0 0 0 177.33 252.35
  L 177.33 377.55
  A 1.33 1.33 0.0 0 0 178.66 378.88
  L 178.70 378.88
  A 1.33 1.33 0.0 0 0 180.03 377.55
  L 180.03 252.35
  Z
  M 249.3011 259.9370
  A 1.19 1.19 0.0 0 0 247.9208 258.9741
  L 246.0306 259.3108
  A 1.19 1.19 0.0 0 0 245.0677 260.6911
  L 245.1589 261.2030
  A 1.19 1.19 0.0 0 0 246.5392 262.1659
  L 248.4294 261.8292
  A 1.19 1.19 0.0 0 0 249.3923 260.4489
  L 249.3011 259.9370
  Z
  M 114.1774 294.9509
  A 1.40 1.40 0.0 0 0 112.4768 293.9371
  L 112.3798 293.9616
  A 1.40 1.40 0.0 0 0 111.3660 295.6622
  L 114.6826 308.7691
  A 1.40 1.40 0.0 0 0 116.3832 309.7829
  L 116.4802 309.7584
  A 1.40 1.40 0.0 0 0 117.4940 308.0578
  L 114.1774 294.9509
  Z
  M 241.7209 312.8954
  A 1.36 1.36 0.0 0 0 240.7303 311.2468
  L 240.6527 311.2275
  A 1.36 1.36 0.0 0 0 239.0040 312.2181
  L 234.6591 329.6446
  A 1.36 1.36 0.0 0 0 235.6497 331.2932
  L 235.7273 331.3125
  A 1.36 1.36 0.0 0 0 237.3760 330.3219
  L 241.7209 312.8954
  Z
  M 120.1250 318.5844
  A 1.44 1.44 0.0 0 0 118.3794 317.5355
  L 118.3406 317.5452
  A 1.44 1.44 0.0 0 0 117.2917 319.2908
  L 133.2150 383.1556
  A 1.44 1.44 0.0 0 0 134.9606 384.2045
  L 134.9994 384.1948
  A 1.44 1.44 0.0 0 0 136.0483 382.4492
  L 120.1250 318.5844
  Z
  M 232.9884 347.9863
  A 1.39 1.39 0.0 0 0 231.9760 346.3013
  L 231.8790 346.2771
  A 1.39 1.39 0.0 0 0 230.1940 347.2896
  L 221.4316 382.4337
  A 1.39 1.39 0.0 0 0 222.4440 384.1187
  L 222.5410 384.1429
  A 1.39 1.39 0.0 0 0 224.2260 383.1304
  L 232.9884 347.9863
  Z
  M 42.0287 350.0145
  A 1.48 1.48 0.0 0 0 39.9762 349.6044
  L 39.9430 349.6266
  A 1.48 1.48 0.0 0 0 39.5328 351.6790
  L 77.1513 408.0855
  A 1.48 1.48 0.0 0 0 79.2038 408.4956
  L 79.2370 408.4734
  A 1.48 1.48 0.0 0 0 79.6472 406.4210
  L 42.0287 350.0145
  Z
  M 296.5849 383.6633
  A 1.49 1.49 0.0 0 0 296.1684 381.5977
  L 296.1351 381.5756
  A 1.49 1.49 0.0 0 0 294.0695 381.9921
  L 277.8551 406.3967
  A 1.49 1.49 0.0 0 0 278.2716 408.4623
  L 278.3049 408.4844
  A 1.49 1.49 0.0 0 0 280.3705 408.0679
  L 296.5849 383.6633
  Z
  M 33.5425 459.6139
  A 1.51 1.51 0.0 0 0 33.1241 457.5199
  L 22.6248 450.5177
  A 1.51 1.51 0.0 0 0 20.5308 450.9362
  L 20.4975 450.9861
  A 1.51 1.51 0.0 0 0 20.9159 453.0801
  L 31.4152 460.0823
  A 1.51 1.51 0.0 0 0 33.5092 459.6638
  L 33.5425 459.6139
  Z"
/>
<rect fill="#a8adbb" x="177.37" y="176.21" width="2.64" height="54.68" rx="1.30"/>
<path fill="#a8adbb" d="
  M 360.00 177.82
  L 360.00 180.65
  Q 343.92 175.41 333.83 188.76
  A 1.12 1.11 25.3 0 1 332.68 189.17
  Q 327.97 188.02 323.62 191.26
  A 1.24 1.23 -36.0 0 1 321.87 190.99
  C 320.85 189.56 319.88 188.02 318.19 187.30
  Q 312.44 184.84 308.23 189.42
  C 307.50 190.21 307.30 191.32 306.60 192.06
  A 1.71 1.69 -74.2 0 1 305.70 192.57
  Q 293.75 195.05 291.25 205.96
  Q 289.27 214.66 296.20 221.85
  A 1.22 1.21 29.0 0 1 296.52 222.96
  Q 296.36 223.73 295.77 224.09
  A 1.36 1.35 -41.4 0 1 294.24 224.00
  C 286.14 217.70 275.05 224.46 275.54 234.25
  Q 275.60 235.42 274.44 235.33
  C 265.18 234.64 259.23 244.65 264.90 252.20
  A 1.13 1.12 -27.2 0 1 264.33 253.94
  Q 259.19 255.54 256.94 260.14
  A 1.30 1.28 8.9 0 1 255.94 260.86
  L 252.62 261.28
  Q 251.58 261.41 251.42 260.37
  L 251.33 259.77
  A 1.23 1.22 -7.2 0 1 252.42 258.37
  L 254.13 258.19
  Q 254.68 258.13 254.97 257.66
  Q 257.29 253.94 260.86 252.31
  Q 261.35 252.09 261.12 251.60
  C 257.15 243.05 262.40 233.81 271.88 232.45
  Q 272.50 232.36 272.63 231.74
  Q 275.54 217.98 289.50 218.79
  Q 290.23 218.83 289.91 218.18
  C 285.24 208.76 288.79 198.21 297.09 192.61
  C 299.08 191.27 301.39 190.58 303.69 189.92
  Q 304.25 189.76 304.58 189.29
  C 305.49 188.00 306.45 186.49 307.80 185.63
  Q 315.84 180.54 322.86 187.25
  Q 323.38 187.74 324.03 187.44
  Q 327.66 185.78 331.41 185.99
  Q 332.12 186.03 332.59 185.49
  Q 343.65 172.80 360.00 177.82
  Z"
/>
<path fill="#a8adbb" d="
  M 0.00 189.77
  L 0.00 185.93
  Q 7.69 177.60 18.77 179.93
  Q 27.54 181.78 32.15 190.54
  Q 32.50 191.21 33.21 190.97
  C 40.84 188.46 49.55 190.38 55.15 196.16
  Q 62.27 203.52 61.13 214.22
  Q 61.06 214.88 61.61 215.25
  C 65.31 217.72 68.25 220.48 69.85 224.57
  C 71.08 227.70 73.31 229.93 75.46 232.38
  Q 76.41 233.45 76.24 234.42
  A 1.14 1.14 0.0 0 1 74.39 235.10
  Q 69.44 231.01 67.46 226.38
  C 65.75 222.33 62.70 218.96 58.62 217.32
  A 1.30 1.30 0.0 0 1 57.83 215.84
  Q 59.73 206.63 54.65 200.09
  C 49.18 193.04 40.12 190.94 31.95 194.78
  A 1.12 1.11 -23.5 0 1 30.45 194.19
  Q 25.29 181.41 12.44 182.59
  Q 6.47 183.14 1.98 188.09
  Q 1.57 188.54 1.31 189.12
  Q 0.38 191.23 0.00 189.77
  Z"
/>
<ellipse fill="#a8adbb" cx="0.00" cy="0.00" transform="translate(82.96,243.15) rotate(50.2)" rx="2.98" ry="1.28"/>
<rect fill="#a8adbb" x="177.33" y="251.02" width="2.70" height="127.86" rx="1.33"/>
<rect fill="#a8adbb" x="-2.15" y="-1.45" transform="translate(247.23,260.57) rotate(-10.1)" width="4.30" height="2.90" rx="1.19"/>
<path fill="#a8adbb" d="
  M 360.00 283.46
  L 360.00 288.54
  L 304.64 371.56
  A 1.50 1.49 30.4 0 1 302.70 372.06
  Q 301.32 371.35 302.44 369.66
  Q 330.70 326.85 360.00 283.46
  Z"
/>
<path fill="#a8adbb" d="
  M 0.00 292.24
  L 0.00 287.48
  L 34.75 339.29
  A 1.04 1.03 61.1 0 1 34.31 340.82
  C 33.26 341.27 32.39 340.97 31.79 340.06
  Q 15.82 316.12 0.00 292.24
  Z"
/>
<rect fill="#a8adbb" x="-1.45" y="-8.16" transform="translate(114.43,301.86) rotate(-14.2)" width="2.90" height="16.32" rx="1.40"/>
<rect fill="#a8adbb" x="-1.40" y="-10.34" transform="translate(238.19,321.27) rotate(14.0)" width="2.80" height="20.68" rx="1.36"/>
<rect fill="#a8adbb" x="-1.46" y="-34.35" transform="translate(126.67,350.87) rotate(-14.0)" width="2.92" height="68.70" rx="1.44"/>
<rect fill="#a8adbb" x="-1.44" y="-19.50" transform="translate(227.21,365.21) rotate(14.0)" width="2.88" height="39.00" rx="1.39"/>
<rect fill="#a8adbb" x="-1.50" y="-35.38" transform="translate(59.59,379.05) rotate(-33.7)" width="3.00" height="70.76" rx="1.48"/>
<rect fill="#a8adbb" x="-1.51" y="-16.14" transform="translate(287.22,395.03) rotate(33.6)" width="3.02" height="32.28" rx="1.49"/>
<path fill="#a8adbb" d="
  M 360.00 553.36
  L 360.00 556.02
  L 0.00 556.05
  L 0.00 553.30
  L 13.56 553.17
  Q 14.07 553.16 14.09 552.65
  Q 15.79 488.91 57.64 443.01
  C 81.08 417.29 112.47 400.03 146.50 393.23
  C 193.17 383.90 242.14 395.31 279.39 424.28
  C 319.29 455.31 342.57 501.91 343.24 552.64
  A 0.64 0.64 0.0 0 0 343.88 553.27
  L 360.00 553.36
  Z
  M 307.84 457.37
  C 285.75 428.12 252.62 405.79 216.22 397.35
  Q 162.78 384.95 113.37 406.84
  Q 73.21 424.64 47.48 460.43
  Q 18.03 501.37 16.95 552.48
  Q 16.93 553.28 17.73 553.28
  L 37.05 553.31
  A 0.64 0.63 -89.5 0 0 37.68 552.68
  Q 38.57 510.44 61.53 475.92
  C 74.84 455.90 93.85 439.34 114.99 428.72
  C 159.66 406.29 213.03 408.93 255.44 436.19
  C 295.12 461.69 318.84 505.25 319.77 552.81
  Q 319.78 553.36 320.32 553.36
  L 339.78 553.37
  A 0.52 0.52 0.0 0 0 340.30 552.86
  Q 340.43 542.20 338.91 531.91
  Q 332.77 490.40 307.84 457.37
  Z
  M 61.08 552.93
  C 61.78 511.20 83.82 473.35 119.88 452.66
  C 171.72 422.92 237.96 436.52 273.50 484.79
  Q 291.14 508.73 295.31 538.48
  C 295.98 543.21 296.12 547.89 296.41 552.73
  Q 296.45 553.31 297.04 553.31
  L 316.25 553.31
  Q 316.79 553.31 316.81 552.77
  Q 316.90 550.27 316.77 547.83
  C 315.06 515.98 302.74 485.48 281.01 461.95
  Q 260.48 439.71 234.50 428.24
  C 162.31 396.38 79.97 431.12 50.34 503.65
  Q 41.10 526.28 40.50 552.73
  A 0.55 0.55 0.0 0 0 41.05 553.29
  L 60.71 553.29
  A 0.37 0.37 0.0 0 0 61.08 552.93
  Z
  M 152.37 465.89
  C 211.50 448.68 269.53 491.31 271.32 552.89
  A 0.41 0.41 0.0 0 0 271.73 553.29
  L 293.19 553.30
  A 0.38 0.38 0.0 0 0 293.57 552.91
  C 292.67 516.18 275.64 483.64 246.28 461.98
  C 207.86 433.65 155.26 432.43 115.58 458.84
  C 84.51 479.52 64.09 515.09 63.98 552.97
  A 0.31 0.31 0.0 0 0 64.29 553.28
  L 85.53 553.34
  A 0.62 0.62 0.0 0 0 86.15 552.74
  C 87.37 512.28 113.43 477.23 152.37 465.89
  Z
  M 198.92 488.06
  C 227.68 496.87 247.45 522.45 248.22 552.74
  Q 248.24 553.28 248.78 553.29
  L 267.70 553.31
  Q 268.29 553.31 268.30 552.72
  Q 268.37 548.74 267.92 544.94
  C 263.69 509.46 239.95 480.34 206.23 469.34
  C 149.21 450.75 90.76 492.94 89.00 552.57
  Q 88.98 553.29 89.70 553.29
  L 108.49 553.30
  Q 109.10 553.30 109.13 552.69
  Q 110.09 529.14 124.25 511.21
  C 141.86 488.92 172.00 479.81 198.92 488.06
  Z
  M 209.89 520.10
  Q 223.75 532.71 225.14 552.66
  A 0.64 0.64 0.0 0 0 225.78 553.26
  L 244.76 553.31
  Q 245.30 553.31 245.28 552.77
  Q 244.12 527.05 227.00 509.03
  C 210.14 491.29 185.79 484.25 162.08 490.26
  C 133.63 497.47 113.15 523.32 112.20 552.65
  Q 112.17 553.27 112.79 553.27
  L 131.72 553.32
  A 0.59 0.59 0.0 0 0 132.32 552.76
  Q 133.67 531.18 149.92 518.19
  C 167.35 504.27 193.30 505.01 209.89 520.10
  Z
  M 181.13 530.85
  C 193.09 532.09 201.11 540.88 202.70 552.78
  Q 202.77 553.28 203.28 553.28
  L 221.52 553.28
  A 0.67 0.67 0.0 0 0 222.20 552.56
  C 220.65 527.35 198.34 508.09 173.11 511.55
  C 152.04 514.43 136.30 531.69 135.25 552.96
  A 0.29 0.29 0.0 0 0 135.54 553.26
  L 154.02 553.31
  A 0.80 0.79 3.7 0 0 154.81 552.62
  Q 157.10 536.61 171.67 531.75
  Q 175.99 530.31 181.13 530.85
  Z
  M 176.10 533.89
  C 166.54 535.24 158.76 542.72 157.75 552.68
  A 0.56 0.55 -87.2 0 0 158.30 553.29
  L 199.21 553.28
  A 0.47 0.47 0.0 0 0 199.68 552.76
  C 198.66 541.13 187.79 532.23 176.10 533.89
  Z"
/>
<path fill="#ffffff" d="
  M 216.22 397.35
  C 252.62 405.79 285.75 428.12 307.84 457.37
  Q 332.77 490.40 338.91 531.91
  Q 340.43 542.20 340.30 552.86
  A 0.52 0.52 0.0 0 1 339.78 553.37
  L 320.32 553.36
  Q 319.78 553.36 319.77 552.81
  C 318.84 505.25 295.12 461.69 255.44 436.19
  C 213.03 408.93 159.66 406.29 114.99 428.72
  C 93.85 439.34 74.84 455.90 61.53 475.92
  Q 38.57 510.44 37.68 552.68
  A 0.64 0.63 -89.5 0 1 37.05 553.31
  L 17.73 553.28
  Q 16.93 553.28 16.95 552.48
  Q 18.03 501.37 47.48 460.43
  Q 73.21 424.64 113.37 406.84
  Q 162.78 384.95 216.22 397.35
  Z"
/>
<path fill="#ffffff" d="
  M 119.88 452.66
  C 83.82 473.35 61.78 511.20 61.08 552.93
  A 0.37 0.37 0.0 0 1 60.71 553.29
  L 41.05 553.29
  A 0.55 0.55 0.0 0 1 40.50 552.73
  Q 41.10 526.28 50.34 503.65
  C 79.97 431.12 162.31 396.38 234.50 428.24
  Q 260.48 439.71 281.01 461.95
  C 302.74 485.48 315.06 515.98 316.77 547.83
  Q 316.90 550.27 316.81 552.77
  Q 316.79 553.31 316.25 553.31
  L 297.04 553.31
  Q 296.45 553.31 296.41 552.73
  C 296.12 547.89 295.98 543.21 295.31 538.48
  Q 291.14 508.73 273.50 484.79
  C 237.96 436.52 171.72 422.92 119.88 452.66
  Z"
/>
<path fill="#a8adbb" d="
  M 360.00 433.87
  L 360.00 437.34
  L 325.87 460.16
  A 1.28 1.25 32.6 0 1 324.97 460.35
  Q 324.07 460.20 323.85 459.59
  Q 323.35 458.21 324.57 457.39
  L 360.00 433.87
  Z"
/>
<path fill="#a8adbb" d="
  M 0.00 438.89
  L 0.00 435.75
  L 11.68 443.32
  Q 13.04 444.20 12.01 445.45
  L 11.78 445.73
  A 1.00 1.00 0.0 0 1 10.45 445.92
  L 0.00 438.89
  Z"
/>
<path fill="#ffffff" d="
  M 271.32 552.89
  C 269.53 491.31 211.50 448.68 152.37 465.89
  C 113.43 477.23 87.37 512.28 86.15 552.74
  A 0.62 0.62 0.0 0 1 85.53 553.34
  L 64.29 553.28
  A 0.31 0.31 0.0 0 1 63.98 552.97
  C 64.09 515.09 84.51 479.52 115.58 458.84
  C 155.26 432.43 207.86 433.65 246.28 461.98
  C 275.64 483.64 292.67 516.18 293.57 552.91
  A 0.38 0.38 0.0 0 1 293.19 553.30
  L 271.73 553.29
  A 0.41 0.41 0.0 0 1 271.32 552.89
  Z"
/>
<rect fill="#a8adbb" x="-7.82" y="-1.54" transform="translate(27.02,455.30) rotate(33.7)" width="15.64" height="3.08" rx="1.51"/>
<path fill="#a8adbb" d="
  M 360.00 461.06
  L 360.00 464.42
  C 352.19 462.82 346.47 469.19 349.69 476.52
  A 1.42 1.42 0.0 0 1 348.07 478.48
  Q 340.80 476.81 334.93 481.17
  A 1.30 1.29 -60.0 0 1 334.04 481.41
  Q 332.21 481.23 332.82 479.31
  A 1.43 1.38 82.6 0 1 333.37 478.57
  Q 339.05 474.70 345.32 475.23
  A 0.46 0.46 0.0 0 0 345.82 474.78
  Q 345.98 460.44 360.00 461.06
  Z"
/>
<path fill="#ffffff" d="
  M 198.92 488.06
  C 172.00 479.81 141.86 488.92 124.25 511.21
  Q 110.09 529.14 109.13 552.69
  Q 109.10 553.30 108.49 553.30
  L 89.70 553.29
  Q 88.98 553.29 89.00 552.57
  C 90.76 492.94 149.21 450.75 206.23 469.34
  C 239.95 480.34 263.69 509.46 267.92 544.94
  Q 268.37 548.74 268.30 552.72
  Q 268.29 553.31 267.70 553.31
  L 248.78 553.29
  Q 248.24 553.28 248.22 552.74
  C 247.45 522.45 227.68 496.87 198.92 488.06
  Z"
/>
<path fill="#ffffff" d="
  M 209.89 520.10
  C 193.30 505.01 167.35 504.27 149.92 518.19
  Q 133.67 531.18 132.32 552.76
  A 0.59 0.59 0.0 0 1 131.72 553.32
  L 112.79 553.27
  Q 112.17 553.27 112.20 552.65
  C 113.15 523.32 133.63 497.47 162.08 490.26
  C 185.79 484.25 210.14 491.29 227.00 509.03
  Q 244.12 527.05 245.28 552.77
  Q 245.30 553.31 244.76 553.31
  L 225.78 553.26
  A 0.64 0.64 0.0 0 1 225.14 552.66
  Q 223.75 532.71 209.89 520.10
  Z"
/>
<path fill="#a8adbb" d="
  M 360.00 508.31
  L 360.00 511.13
  L 349.43 513.82
  Q 348.39 514.09 348.14 513.05
  L 348.07 512.78
  A 1.48 1.48 0.0 0 1 349.16 510.98
  L 360.00 508.31
  Z"
/>
<path fill="#a8adbb" d="
  M 0.00 511.88
  L 0.00 509.09
  L 8.28 511.08
  Q 9.54 511.38 9.40 512.67
  Q 9.36 512.99 9.20 513.28
  A 1.16 1.16 0.0 0 1 7.92 513.82
  L 0.00 511.88
  Z"
/>
<path fill="#ffffff" d="
  M 202.70 552.78
  C 201.11 540.88 193.09 532.09 181.13 530.85
  Q 175.99 530.31 171.67 531.75
  Q 157.10 536.61 154.81 552.62
  A 0.80 0.79 3.7 0 1 154.02 553.31
  L 135.54 553.26
  A 0.29 0.29 0.0 0 1 135.25 552.96
  C 136.30 531.69 152.04 514.43 173.11 511.55
  C 198.34 508.09 220.65 527.35 222.20 552.56
  A 0.67 0.67 0.0 0 1 221.52 553.28
  L 203.28 553.28
  Q 202.77 553.28 202.70 552.78
  Z"
/>
<path fill="#ffffff" d="
  M 157.75 552.68
  C 158.76 542.72 166.54 535.24 176.10 533.89
  C 187.79 532.23 198.66 541.13 199.68 552.76
  A 0.47 0.47 0.0 0 1 199.21 553.28
  L 158.30 553.29
  A 0.56 0.55 -87.2 0 1 157.75 552.68
  Z"
/>
<path fill="#ffffff" d="
  M 0.00 556.05
  L 360.00 556.02
  L 360.00 640.00
  L 0.00 640.00
  L 0.00 556.05
  Z
  M 343.21 565.80
  A 1.20 1.20 0.0 0 0 342.01 564.60
  L 15.31 564.60
  A 1.20 1.20 0.0 0 0 14.11 565.80
  L 14.11 565.90
  A 1.20 1.20 0.0 0 0 15.31 567.10
  L 342.01 567.10
  A 1.20 1.20 0.0 0 0 343.21 565.90
  L 343.21 565.80
  Z
  M 180.62 580.76
  A 1.22 1.22 0.0 0 0 179.40 579.54
  L 33.02 579.54
  A 1.22 1.22 0.0 0 0 31.80 580.76
  L 31.80 580.80
  A 1.22 1.22 0.0 0 0 33.02 582.02
  L 179.40 582.02
  A 1.22 1.22 0.0 0 0 180.62 580.80
  L 180.62 580.76
  Z
  M 237.47 580.74
  A 1.24 1.24 0.0 0 0 236.23 579.50
  L 197.23 579.50
  A 1.24 1.24 0.0 0 0 195.99 580.74
  L 195.99 580.82
  A 1.24 1.24 0.0 0 0 197.23 582.06
  L 236.23 582.06
  A 1.24 1.24 0.0 0 0 237.47 580.82
  L 237.47 580.74
  Z
  M 323.30 580.73
  A 1.20 1.20 0.0 0 0 322.10 579.53
  L 250.10 579.53
  A 1.20 1.20 0.0 0 0 248.90 580.73
  L 248.90 580.83
  A 1.20 1.20 0.0 0 0 250.10 582.03
  L 322.10 582.03
  A 1.20 1.20 0.0 0 0 323.30 580.83
  L 323.30 580.73
  Z
  M 112.84 595.65
  A 1.29 1.29 0.0 0 0 111.55 594.36
  L 50.65 594.36
  A 1.29 1.29 0.0 0 0 49.36 595.65
  L 49.36 595.71
  A 1.29 1.29 0.0 0 0 50.65 597.00
  L 111.55 597.00
  A 1.29 1.29 0.0 0 0 112.84 595.71
  L 112.84 595.65
  Z
  M 288.27 595.65
  A 1.37 1.37 0.0 0 0 286.90 594.28
  L 125.86 594.28
  A 1.37 1.37 0.0 0 0 124.49 595.65
  L 124.49 595.69
  A 1.37 1.37 0.0 0 0 125.86 597.06
  L 286.90 597.06
  A 1.37 1.37 0.0 0 0 288.27 595.69
  L 288.27 595.65
  Z
  M 307.9999 595.6220
  A 1.14 1.14 0.0 0 0 306.8579 594.4839
  L 299.9179 594.4961
  A 1.14 1.14 0.0 0 0 298.7799 595.6380
  L 298.7801 595.7380
  A 1.14 1.14 0.0 0 0 299.9221 596.8761
  L 306.8621 596.8639
  A 1.14 1.14 0.0 0 0 308.0001 595.7220
  L 307.9999 595.6220
  Z
  M 164.01 610.37
  A 1.46 1.46 0.0 0 0 162.55 608.91
  L 80.97 608.91
  A 1.46 1.46 0.0 0 0 79.51 610.37
  L 79.51 610.41
  A 1.46 1.46 0.0 0 0 80.97 611.87
  L 162.55 611.87
  A 1.46 1.46 0.0 0 0 164.01 610.41
  L 164.01 610.37
  Z
  M 230.13 610.38
  A 1.43 1.43 0.0 0 0 228.70 608.95
  L 177.58 608.95
  A 1.43 1.43 0.0 0 0 176.15 610.38
  L 176.15 610.42
  A 1.43 1.43 0.0 0 0 177.58 611.85
  L 228.70 611.85
  A 1.43 1.43 0.0 0 0 230.13 610.42
  L 230.13 610.38
  Z
  M 258.7301 610.3426
  A 1.38 1.38 0.0 0 0 257.3525 608.9602
  L 245.6725 608.9398
  A 1.38 1.38 0.0 0 0 244.2901 610.3174
  L 244.2899 610.4574
  A 1.38 1.38 0.0 0 0 245.6675 611.8398
  L 257.3475 611.8602
  A 1.38 1.38 0.0 0 0 258.7299 610.4826
  L 258.7301 610.3426
  Z
  M 154.51 625.18
  A 1.35 1.35 0.0 0 0 153.16 623.83
  L 117.22 623.83
  A 1.35 1.35 0.0 0 0 115.87 625.18
  L 115.87 625.40
  A 1.35 1.35 0.0 0 0 117.22 626.75
  L 153.16 626.75
  A 1.35 1.35 0.0 0 0 154.51 625.40
  L 154.51 625.18
  Z
  M 175.7407 625.0908
  A 1.24 1.24 0.0 0 0 174.5051 623.8465
  L 165.0651 623.8135
  A 1.24 1.24 0.0 0 0 163.8208 625.0492
  L 163.8193 625.4892
  A 1.24 1.24 0.0 0 0 165.0549 626.7335
  L 174.4949 626.7665
  A 1.24 1.24 0.0 0 0 175.7392 625.5308
  L 175.7407 625.0908
  Z
  M 247.18 625.10
  A 1.26 1.26 0.0 0 0 245.92 623.84
  L 188.62 623.84
  A 1.26 1.26 0.0 0 0 187.36 625.10
  L 187.36 625.48
  A 1.26 1.26 0.0 0 0 188.62 626.74
  L 245.92 626.74
  A 1.26 1.26 0.0 0 0 247.18 625.48
  L 247.18 625.10
  Z
  M 160.8693 637.3938
  A 1.29 1.29 0.0 0 0 159.5748 636.1084
  L 152.8949 636.1317
  A 1.29 1.29 0.0 0 0 151.6094 637.4262
  L 151.6107 637.8062
  A 1.29 1.29 0.0 0 0 152.9052 639.0916
  L 159.5851 639.0683
  A 1.29 1.29 0.0 0 0 160.8706 637.7738
  L 160.8693 637.3938
  Z
  M 191.59 637.45
  A 1.33 1.33 0.0 0 0 190.26 636.12
  L 169.72 636.12
  A 1.33 1.33 0.0 0 0 168.39 637.45
  L 168.39 637.77
  A 1.33 1.33 0.0 0 0 169.72 639.10
  L 190.26 639.10
  A 1.33 1.33 0.0 0 0 191.59 637.77
  L 191.59 637.45
  Z"
/>
<rect fill="#a8adbb" x="14.11" y="564.60" width="329.10" height="2.50" rx="1.20"/>
<rect fill="#a8adbb" x="31.80" y="579.54" width="148.82" height="2.48" rx="1.22"/>
<rect fill="#a8adbb" x="195.99" y="579.50" width="41.48" height="2.56" rx="1.24"/>
<rect fill="#a8adbb" x="248.90" y="579.53" width="74.40" height="2.50" rx="1.20"/>
<rect fill="#a8adbb" x="49.36" y="594.36" width="63.48" height="2.64" rx="1.29"/>
<rect fill="#a8adbb" x="124.49" y="594.28" width="163.78" height="2.78" rx="1.37"/>
<rect fill="#a8adbb" x="-4.61" y="-1.19" transform="translate(303.39,595.68) rotate(-0.1)" width="9.22" height="2.38" rx="1.14"/>
<rect fill="#a8adbb" x="79.51" y="608.91" width="84.50" height="2.96" rx="1.46"/>
<rect fill="#a8adbb" x="176.15" y="608.95" width="53.98" height="2.90" rx="1.43"/>
<rect fill="#a8adbb" x="-7.22" y="-1.45" transform="translate(251.51,610.40) rotate(0.1)" width="14.44" height="2.90" rx="1.38"/>
<rect fill="#a8adbb" x="115.87" y="623.83" width="38.64" height="2.92" rx="1.35"/>
<rect fill="#a8adbb" x="-5.96" y="-1.46" transform="translate(169.78,625.29) rotate(0.2)" width="11.92" height="2.92" rx="1.24"/>
<rect fill="#a8adbb" x="187.36" y="623.84" width="59.82" height="2.90" rx="1.26"/>
<rect fill="#a8adbb" x="-4.63" y="-1.48" transform="translate(156.24,637.60) rotate(-0.2)" width="9.26" height="2.96" rx="1.29"/>
<rect fill="#a8adbb" x="168.39" y="636.12" width="23.20" height="2.98" rx="1.33"/>
</svg>
